<?xml version="1.0" standalone="no"?>
<!DOCTYPE svg PUBLIC "-//W3C//DTD SVG 20010904//EN"
 "http://www.w3.org/TR/2001/REC-SVG-20010904/DTD/svg10.dtd">
<svg version="1.0" xmlns="http://www.w3.org/2000/svg"
 width="3508.000000pt" height="710.000000pt" viewBox="0 0 3508.000000 710.000000"
 preserveAspectRatio="xMidYMid meet">

<g transform="translate(0.000000,710.000000) scale(0.100000,-0.100000)"
fill="#000000" stroke="none">
<path d="M0 3550 l0 -3550 17540 0 17540 0 0 3550 0 3550 -17540 0 -17540 0 0
-3550z m3405 1655 c122 -32 149 -55 532 -433 356 -352 362 -358 402 -442 81
-168 76 -97 76 -1172 l0 -956 -30 -43 c-103 -147 -383 -125 -456 36 -17 37
-19 75 -19 453 l0 412 -620 0 -620 0 0 -403 c0 -231 -4 -417 -10 -436 -46
-163 -295 -217 -431 -94 -74 67 -70 9 -67 1048 3 869 5 934 22 995 27 95 76
196 130 268 71 92 686 691 746 726 98 55 229 71 345 41z m12816 -14 c31 -12
76 -35 100 -51 24 -16 202 -186 396 -377 346 -342 352 -349 392 -433 81 -168
76 -97 76 -1172 l0 -956 -30 -43 c-103 -147 -383 -125 -456 36 -17 37 -19 75
-19 453 l0 412 -620 0 -620 0 0 -402 c0 -251 -4 -417 -11 -441 -13 -47 -60
-102 -113 -130 -60 -32 -203 -32 -263 1 -53 28 -80 56 -104 107 -18 38 -19 84
-19 945 0 845 1 911 19 996 22 108 71 216 135 301 58 76 681 688 733 720 21
13 65 32 98 43 80 27 224 22 306 -9z m10714 14 c122 -32 150 -55 532 -433 356
-352 362 -358 402 -442 81 -168 75 -91 79 -1153 2 -915 2 -949 -17 -991 -76
-172 -393 -166 -472 9 -17 37 -19 75 -19 453 l0 412 -620 0 -620 0 0 -402 c0
-251 -4 -417 -11 -441 -13 -47 -60 -102 -113 -130 -56 -30 -203 -32 -256 -3
-49 26 -88 64 -111 108 -18 36 -19 71 -19 945 0 848 1 914 19 998 22 106 54
182 116 275 59 89 696 716 765 754 100 54 232 70 345 41z m-21889 -30 c57 -17
117 -63 142 -108 16 -30 17 -116 22 -1172 5 -1064 6 -1143 23 -1178 27 -58 82
-112 140 -138 51 -24 58 -24 417 -27 443 -4 482 1 559 80 18 18 42 51 54 73
l22 40 5 1141 5 1141 30 49 c79 128 300 154 422 49 79 -67 74 20 71 -1260 l-3
-1140 -23 -75 c-69 -223 -213 -394 -417 -495 -178 -88 -187 -90 -695 -90
l-445 0 -90 28 c-171 53 -285 124 -398 248 -79 87 -147 215 -180 339 l-22 85
0 1130 0 1130 24 42 c58 102 203 148 337 108z m6154 -14 c41 -12 115 -43 165
-69 73 -37 108 -64 186 -142 85 -84 102 -107 147 -200 93 -188 86 -109 90
-1095 3 -960 4 -950 -59 -1102 -77 -184 -249 -353 -437 -429 -144 -58 -142
-58 -632 -62 -425 -3 -462 -2 -554 17 -120 24 -273 96 -363 171 -117 97 -218
257 -260 410 -17 60 -18 134 -18 960 l0 895 23 78 c70 244 243 439 475 535
141 59 165 61 687 58 461 -2 477 -3 550 -25z m1293 18 c52 -14 103 -62 189
-179 40 -54 208 -280 373 -503 165 -223 303 -406 306 -406 8 -1 50 54 414 544
330 444 366 489 424 523 42 25 55 27 151 27 113 0 158 -15 207 -67 55 -59 53
6 53 -1498 l0 -1388 -27 -52 c-22 -42 -40 -59 -83 -84 -50 -28 -63 -31 -145
-31 -81 0 -95 3 -145 30 -33 18 -66 47 -85 73 l-30 44 -5 1009 -5 1010 -110
-143 c-60 -78 -166 -214 -234 -302 -67 -89 -144 -185 -169 -215 -74 -87 -171
-119 -272 -91 -87 24 -118 56 -391 409 l-264 342 -5 -1008 c-6 -1110 -1 -1033
-67 -1094 -45 -42 -93 -62 -164 -67 -122 -9 -230 44 -270 132 -18 39 -19 100
-19 1426 0 923 4 1397 10 1422 18 64 73 115 150 139 38 11 170 10 213 -2z
m17347 -19 c309 -63 536 -298 590 -613 18 -103 8 -564 -14 -642 -28 -97 -84
-200 -146 -268 l-58 -63 37 -31 c55 -46 127 -157 159 -243 l27 -75 3 -487 c2
-312 -1 -501 -7 -526 -12 -45 -59 -95 -115 -125 -33 -18 -58 -22 -131 -22 -81
0 -95 3 -145 30 -58 32 -94 75 -110 134 -6 22 -10 212 -10 477 0 503 -1 514
-73 588 -72 75 -80 76 -614 76 l-463 0 -2 -584 -3 -584 -30 -43 c-99 -140
-367 -128 -442 21 l-23 44 0 1478 0 1478 738 0 c691 0 743 -1 832 -20z m-6200
-14 c325 -92 570 -346 634 -658 14 -67 16 -186 16 -872 0 -858 -1 -868 -54
-1010 -50 -132 -159 -275 -275 -360 -100 -74 -248 -134 -381 -155 -41 -7 -344
-11 -817 -11 l-753 0 0 1545 0 1546 783 -3 c722 -3 787 -5 847 -22z m-14332
-1 c47 -20 78 -50 105 -100 18 -33 22 -57 22 -140 0 -88 -3 -105 -23 -138 -34
-53 -80 -85 -142 -97 -29 -5 -210 -10 -401 -10 l-349 0 0 -1212 c0 -1152 -1
-1215 -19 -1253 -67 -147 -310 -183 -444 -64 -82 71 -77 -15 -77 1335 l0 1193
-377 3 c-373 3 -379 3 -426 26 -84 42 -122 143 -105 276 9 66 46 139 81 158
63 36 65 36 1100 37 897 1 1022 -1 1055 -14z m10200 0 c85 -36 132 -118 132
-231 0 -115 -35 -185 -113 -227 -41 -22 -50 -22 -424 -25 l-383 -3 0 -1212 c0
-1157 -1 -1214 -19 -1253 -71 -157 -346 -181 -466 -41 -18 21 -38 58 -44 82
-8 31 -11 399 -11 1234 l0 1190 -378 3 -378 3 -49 25 c-72 37 -105 104 -105
209 0 130 31 194 114 236 l50 25 1018 0 c897 0 1023 -2 1056 -15z m2118 -4
c87 -39 131 -133 122 -260 -7 -99 -51 -171 -123 -203 -24 -10 -170 -14 -682
-16 l-653 -3 0 -394 0 -395 493 0 c551 0 539 1 604 -73 39 -44 53 -91 53 -178
0 -114 -34 -179 -115 -222 -39 -22 -50 -22 -537 -25 l-498 -3 0 -389 0 -389
653 -3 652 -3 42 -22 c71 -39 113 -122 113 -228 0 -115 -55 -208 -137 -233
-30 -9 -266 -12 -932 -12 l-891 0 0 1535 0 1535 898 0 c851 0 899 -1 938 -19z
m11152 4 c84 -36 132 -118 132 -229 0 -94 -17 -143 -66 -192 -60 -61 -87 -64
-499 -64 l-355 0 0 -1212 c0 -1158 -1 -1215 -19 -1254 -65 -143 -308 -181
-439 -68 -84 72 -77 -51 -80 1316 l-2 1217 -378 3 -378 3 -49 25 c-39 21 -55
37 -78 80 -27 52 -29 61 -25 150 5 133 39 190 133 227 22 8 294 12 1048 12
897 1 1022 -1 1055 -14z"/>
<path d="M3011 4435 c-241 -243 -275 -282 -304 -342 l-32 -68 -3 -247 -3 -248
621 0 621 0 -3 258 -3 257 -28 60 c-24 51 -67 98 -275 303 -136 134 -263 257
-283 273 l-36 28 -272 -274z"/>
<path d="M15793 4447 c-143 -144 -274 -282 -290 -307 -55 -82 -63 -128 -63
-382 l0 -228 621 0 620 0 -3 258 c-4 346 18 301 -316 630 -141 140 -269 262
-283 272 l-26 19 -260 -262z"/>
<path d="M26543 4438 c-237 -240 -274 -281 -304 -343 l-34 -69 -3 -248 -3
-248 621 0 621 0 -3 258 -3 257 -28 60 c-23 48 -61 92 -210 240 -191 189 -373
365 -380 365 -2 0 -125 -123 -274 -272z"/>
<path d="M10115 4667 c-27 -13 -67 -42 -87 -65 -70 -78 -68 -50 -68 -972 0
-931 -3 -895 73 -977 22 -24 59 -54 82 -66 39 -21 50 -22 489 -25 521 -3 515
-4 602 83 88 88 84 37 84 980 0 900 1 879 -59 963 -17 22 -52 53 -78 69 l-48
28 -470 3 -470 2 -50 -23z"/>
<path d="M28770 4270 l0 -420 464 0 c272 0 485 4 517 10 70 13 123 50 151 103
22 40 23 54 26 294 3 240 2 254 -19 302 -25 60 -73 106 -126 120 -24 7 -216
11 -525 11 l-488 0 0 -420z"/>
<path d="M22510 3625 l0 -1055 493 0 c405 0 503 3 550 15 94 24 145 63 185
140 l27 50 3 814 c3 917 6 879 -71 973 -27 33 -63 62 -102 82 l-60 31 -512 3
-513 3 0 -1056z"/>
</g>
</svg>
